<svg aria-hidden="true" style="position:absolute;width:0;height:0;overflow:hidden" xmlns="http://www.w3.org/2000/svg">
  <defs>
    <symbol id="icon-facebook" viewBox="0 0 32 32">
      <path d="M16 2.667C8.636 2.667 2.667 8.636 2.667 16c0 6.655 4.876 12.171 11.251 13.172v-9.319h-3.387V16h3.387v-2.937c0-3.341 1.989-5.187 5.036-5.187 1.459 0 2.984.26 2.984.26v3.28h-1.68c-1.657 0-2.173 1.028-2.173 2.083V16h3.697l-.591 3.853h-3.107v9.319c6.373-1 11.249-6.519 11.249-13.172 0-7.364-5.969-13.333-13.333-13.333z"/>
    </symbol>
    <symbol id="icon-instagram" viewBox="0 0 32 32">
      <path d="M16 2.667c3.623 0 4.075.013 5.496.08 1.42.067 2.387.289 3.237.62a6.51 6.51 0 0 1 2.363 1.537 6.538 6.538 0 0 1 1.537 2.363c.329.849.553 1.817.62 3.237.063 1.421.08 1.873.08 5.496s-.013 4.075-.08 5.496c-.067 1.42-.291 2.387-.62 3.237a6.53 6.53 0 0 1-1.537 2.363 6.55 6.55 0 0 1-2.363 1.537c-.849.329-1.817.553-3.237.62-1.421.063-1.873.08-5.496.08s-4.075-.013-5.496-.08c-1.42-.067-2.387-.291-3.237-.62a6.53 6.53 0 0 1-2.363-1.537 6.53 6.53 0 0 1-1.537-2.363c-.331-.849-.553-1.817-.62-3.237-.063-1.421-.08-1.873-.08-5.496s.013-4.075.08-5.496c.067-1.421.289-2.387.62-3.237a6.516 6.516 0 0 1 1.537-2.363 6.53 6.53 0 0 1 2.363-1.537c.851-.331 1.816-.553 3.237-.62 1.421-.063 1.873-.08 5.496-.08zm0 6.666a6.67 6.67 0 0 0-4.714 11.381 6.67 6.67 0 0 0 9.428 0A6.668 6.668 0 0 0 16 9.333zM24.667 9a1.667 1.667 0 1 0-3.334 0 1.667 1.667 0 0 0 3.334 0zM16 12a4.003 4.003 0 0 1 4 4 4.003 4.003 0 0 1-4 4 4.003 4.003 0 0 1-4-4 4.003 4.003 0 0 1 4-4z"/>
    </symbol>
    <symbol id="icon-location" viewBox="0 0 32 32">
      <path stroke-width="2" d="M26.667 13.333c0 5.891-10.667 16-10.667 16s-10.667-10.109-10.667-16a10.666 10.666 0 0 1 21.333 0z"/>
      <path stroke-linejoin="round" stroke-linecap="round" stroke-width="2" d="M16 14.667A1.334 1.334 0 1 0 16 12a1.334 1.334 0 0 0 0 2.667z"/>
    </symbol>
    <symbol id="icon-quote" viewBox="0 0 39 32">
      <path d="M35.915 0c-8.781.696-14.208 5.366-14.208 14.41V32h17.76V15.006h-7.992v-1.193c0-4.373 3.749-5.168 7.696-5.168L35.915-.001zM14.208 0C5.427.696 0 5.366 0 14.41V32h17.76V15.006H9.768v-1.193c0-4.373 3.749-5.168 7.696-5.168L14.208-.001z"/>
    </symbol>
    <symbol id="icon-search" viewBox="0 0 32 32">
      <path stroke-linejoin="round" stroke-linecap="round" stroke-width="2.4" d="m24 24 6.4 6.4m-28.8-16a12.8 12.8 0 1 0 25.602 0 12.8 12.8 0 0 0-25.602 0z"/>
    </symbol>
    <symbol id="icon-send" viewBox="0 0 32 32">
      <path stroke-linejoin="round" stroke-linecap="round" stroke-width="1.333" d="M9 16h13.333m0 0-3.667 3.667M22.333 16l-3.667-3.667"/>
      <path stroke-width="1.333" d="M2.667 20v-8A5.332 5.332 0 0 1 8 6.667h16A5.332 5.332 0 0 1 29.333 12v8A5.332 5.332 0 0 1 24 25.333H8A5.332 5.332 0 0 1 2.667 20z"/>
    </symbol>
    <symbol id="icon-services-1" viewBox="0 0 31 32">
      <path d="M29.518 28.875c-.25-.978-.496-1.957-1.066-2.811-.126-.189-.12-.26.079-.399 1.399-.973 2.031-2.319 1.882-4.023a.988.988 0 0 0-.678-.89 1.017 1.017 0 0 0-1.1.214c-.341.307-.677.617-1.022.919-.402.352-.934.36-1.303.029-.383-.342-.444-.847-.148-1.295.228-.347.459-.695.702-1.032.288-.4.364-.813.109-1.253s-.668-.553-1.151-.515a4.295 4.295 0 0 0-3.943 4.609c.017.203-.046.224-.214.204a24.588 24.588 0 0 0-1.211-.126c-.827-.058-1.366-.605-1.383-1.431-.01-.501.005-1.002-.006-1.499a.51.51 0 0 1 .188-.43 13.606 13.606 0 0 0 1.988-2.152c.74-1.023 1.169-2.136 1.115-3.425-.043-.977 0-1.958-.015-2.937-.004-.256.074-.323.314-.304.25.013.501.013.752 0 .429-.012.691-.256.695-.637s-.268-.641-.711-.655a1.003 1.003 0 0 0-.155 0c-.15.018-.227-.024-.23-.197a4.173 4.173 0 0 0-.061-.621c-.459-2.756-1.935-4.769-4.427-6.039a.283.283 0 0 1-.185-.277c-.069-1.103-.9-1.89-2.005-1.899-.812-.007-1.625 0-2.437 0-1.169 0-1.97.712-2.088 1.877a.35.35 0 0 1-.225.317C8.92 3.601 7.413 5.783 7.146 8.795c-.016.185-.061.271-.251.246a1.145 1.145 0 0 0-.219 0c-.392.026-.656.295-.647.658.008.349.269.611.645.628.26.017.521.017.781 0 .251-.023.334.045.33.315-.018 1.021.013 2.042-.013 3.062-.028 1.07.291 2.024.863 2.91.62.963 1.407 1.776 2.249 2.542.096.084.205.158.202.326-.013.562.013 1.125-.013 1.686a1.397 1.397 0 0 1-1.228 1.329c-.993.108-1.986.216-2.981.308-2.785.259-5.204 2.276-5.961 4.996-.287 1.03-.529 2.073-.835 3.098-.141.473-.084.827.334 1.102h.373c.334-.126.469-.387.557-.715.325-1.214.551-2.458 1.009-3.629.707-1.807 2.044-2.938 3.926-3.432.215-.056.293-.04.287.209-.016.625-.01 1.253 0 1.874 0 .167-.032.251-.206.317-.971.348-1.623 1.022-1.972 1.988-.276.761-.543 1.525-.815 2.288-.204.57-.142.77.345 1.1h.312c.307-.108.463-.334.564-.637.262-.776.54-1.546.819-2.316.292-.808.946-1.302 1.79-1.305 3.495-.01 6.99-.005 10.485-.005a.734.734 0 0 1 .122.025c-.243.314-.479.608-.607.972a2.446 2.446 0 0 0 .107 1.904 2.432 2.432 0 0 0 1.447 1.243c.092.029.21.01.27.118h.752c.924-.152 1.516-.765 2.076-1.449.585-.716 1.213-1.396 1.809-2.104.144-.167.225-.156.344.008.141.193.254.405.334.63.267.752.546 1.503.8 2.255.097.289.236.522.513.66h.312c.505-.242.614-.509.423-1.047-.267-.752-.538-1.503-.802-2.255a3.268 3.268 0 0 0-.761-1.27c-.127-.125-.099-.19-.007-.326.356-.518.781-.747 1.456-.765.54-.014.741.181.967.567.47.803.642 1.702.886 2.578.161.579.322 1.159.457 1.745.075.328.212.596.505.772h.375c.47-.271.556-.48.418-1.017-.188-.702-.374-1.405-.553-2.107zM8.454 8.771c.212-2.119 1.209-3.767 2.958-4.968.12-.084.245-.157.37-.231.084-.047.167-.084.282-.148l.711 3.193c.018.083.036.167.058.242.108.375.432.585.775.508a.634.634 0 0 0 .487-.783c-.21-1.006-.44-2.009-.662-3.013-.103-.466-.211-.931-.31-1.399-.101-.484.186-.854.679-.859.842-.009 1.686-.009 2.529 0 .469.006.762.388.662.847-.311 1.432-.624 2.862-.939 4.292-.099.453.041.771.397.898.401.142.769-.104.879-.591.229-1.024.466-2.045.677-3.074.053-.257.121-.24.309-.129 2.012 1.192 3.128 2.952 3.381 5.272.034.309-.167.22-.309.22H9.519c-.271 0-.542-.015-.812.005-.233.018-.275-.07-.254-.284v.002zm1.737 7.779c-.501-.632-.925-1.305-1.068-2.119-.054-.312-.031-.623-.032-.935 0-.958.007-1.915-.008-2.873 0-.234.055-.293.291-.291 1.894.01 3.789.006 5.68.006s3.789 0 5.68-.005c.223 0 .302.039.299.285a105.417 105.417 0 0 0 0 3.279c.015 1.047-.487 1.872-1.098 2.649-.895 1.138-2.019 2.035-3.102 2.979-.418.367-.858.56-1.413.501a2.29 2.29 0 0 0-.561 0c-.68.089-1.209-.155-1.718-.609-1.021-.92-2.091-1.783-2.949-2.868v.002zm2.195 3.979c.043 0 .07-.008.084 0 .638.642 1.412.874 2.304.799.372-.031.752-.008 1.123-.005a2.186 2.186 0 0 0 1.436-.516l.418-.34c.091 1.725.266 2.139 1.189 2.886-1.603 1.551-5.67 1.564-7.745.007.981-.696 1.286-1.685 1.19-2.832l.001.002zm-4.187 5.912c-.265 0-.359-.047-.347-.334a30.78 30.78 0 0 0 0-1.873c0-.167.043-.256.223-.238a.08.08 0 0 0 .031 0c.881-.223 1.625-.03 2.404.494a7.97 7.97 0 0 0 4.9 1.377c1.797-.084 3.385-.764 4.854-1.762.43-.292.46-.297 1.065-.16-.619.716-1.232 1.394-1.806 2.104-.24.295-.487.397-.866.395-3.485-.017-6.971-.019-10.457-.004v.002zm17.456-1.393a.811.811 0 0 0-.822.299 2254.232 2254.232 0 0 1-4.272 4.933c-.307.354-.687.518-1.141.381a1.174 1.174 0 0 1-.856-.941c-.072-.369.084-.668.317-.938l3.842-4.439c.028-.031.052-.065.084-.094.468-.423.607-.869.44-1.543-.39-1.578.68-3.186 2.197-3.48.01.01.02.021.031.03-.088.251-.268.44-.408.657-.637.986-.491 2.202.364 2.975.839.759 2.102.773 2.998.028.214-.178.418-.371.663-.594.021.151.011.304-.031.451-.379 1.564-1.809 2.532-3.41 2.273l.004.002z"/>
    </symbol>
    <symbol id="icon-services-2" viewBox="0 0 32 32">
      <path d="M31.692 19.296c-.393-.669-1.038-1.039-1.663-1.43-.74-.463-1.558-.787-2.293-1.261-.615-.396-1.135-.875-1.445-1.555-.094-.205-.086-.343.09-.514.719-.696 1.421-1.409 2.127-2.118.566-.569.567-1.151 0-1.72-1.06-1.062-2.125-2.12-3.181-3.185-.263-.266-.555-.443-.936-.412-.171.014-.208-.112-.275-.208-1.446-2.062-2.89-4.126-4.332-6.192-.219-.315-.461-.573-.828-.701h-.501c-.151.115-.338.171-.477.311l-6.052 6.063c-.35.352-.406.819-.175 1.267.186.361.391.711.584 1.068.04.072.11.136.097.285-.454-.255-.865-.487-1.284-.71-.459-.243-.913-.2-1.27.143-.541.52-1.07 1.051-1.589 1.593a.546.546 0 0 1-.389.196c-1.757.119-3.509.284-5.22.731-.786.205-1.565.436-2.206.973-.283.238-.469.527-.469.911v2.064c0 .319.103.606.338.812.173.151.198.315.198.521-.004 4.232.013 8.464-.017 12.697-.006.815.33 1.313 1 1.675.759.411 1.582.63 2.417.803 1.997.414 4.022.561 6.056.591 2.494.037 4.978-.094 7.43-.596.939-.191 1.865-.434 2.679-.974.477-.318.715-.737.712-1.334-.016-2.897-.007-5.797-.008-8.694 0-.157.004-.296.136-.424a89.159 89.159 0 0 0 1.656-1.656c.115-.117.208-.127.355-.064.513.211.962.553 1.302.992.36.446.637.949.898 1.459.382.75.769 1.498 1.279 2.175 1.058 1.402 2.831 1.548 4.104.333.641-.612 1.263-1.231 1.494-2.128v-.94c-.134-.273-.176-.58-.336-.849zM10.476 9.317c.124-.127.205-.069.319-.006.925.517 1.853 1.032 2.782 1.545.387.211.777.046.85-.347.033-.178-.049-.324-.127-.47-.5-.9-.995-1.803-1.504-2.697-.095-.166-.086-.259.052-.394.627-.611 1.242-1.235 1.861-1.854.293-.293.292-.292.548.016a9284.161 9284.161 0 0 0 3.122 3.747c.236.255.536.295.773.097s.264-.51.043-.779c-.554-.678-1.118-1.347-1.679-2.02-.54-.648-1.077-1.3-1.625-1.942-.11-.127-.112-.199.013-.322.892-.878 1.776-1.763 2.653-2.655.166-.168.226-.106.331.043a2918.19 2918.19 0 0 0 4.371 6.244c.111.158.097.243-.039.382a2971.6 2971.6 0 0 0-7.322 7.318c-.098.098-.163.18-.327.064-2.153-1.518-4.312-3.026-6.507-4.562.484-.482.956-.941 1.413-1.411h-.001zm1.929 5.053c-2.831.091-5.549-.004-8.241-.504a37.142 37.142 0 0 1 6.498-.536.78.78 0 0 1 .488.155c.39.285.789.558 1.256.885h-.001zM1.207 12.662c.199-.15.421-.267.658-.347 1.165-.44 2.385-.637 3.611-.803.805-.108 1.614-.166 2.421-.229a.402.402 0 0 1 .374.142c.301.33.722.515 1.114.853-.626.034-1.186.064-1.745.096-1.892.12-3.768.331-5.592.885-.212.064-.821-.215-.932-.405-.068-.117.038-.15.09-.192zm-.127 1.469c2.269.903 4.627 1.123 7 1.265 1.832.102 3.668.097 5.499-.017a.661.661 0 0 1 .463.127c.345.255.701.496 1.123.792a37.11 37.11 0 0 1-3.135.213c-2.4.059-4.793-.017-7.171-.375-1.029-.155-2.06-.323-3.02-.744s-.766-.324-.759-1.261v-.001zm18.656 15.107c0 .217-.164.305-.319.391-.67.375-1.409.557-2.151.712-2.544.531-5.121.637-7.709.577-2.023-.046-4.033-.217-6.006-.701a7.246 7.246 0 0 1-1.556-.541c-.278-.141-.401-.328-.398-.661.017-2.022.008-4.044.008-6.066 0-2.043.004-4.086-.005-6.128 0-.27.015-.359.327-.255 1.378.467 2.811.671 4.251.818a45.087 45.087 0 0 0 9.112-.027.437.437 0 0 1 .411.141c.991 1 1.99 1.99 2.98 2.989.255.255.526.446.9.421.138-.01.154.058.154.166v8.166h.001zm-.021-9.535c-.127.127-.191.127-.313 0a423.563 423.563 0 0 0-3.071-3.072c-.136-.134-.141-.201 0-.34 2.655-2.648 5.305-5.3 7.952-7.957.151-.152.224-.133.363.006a438.527 438.527 0 0 0 3.048 3.052c.059.047.124.088.191.121-.09.096-.127.143-.174.186l-7.997 8.004h.001zm10.758 2.058c-.244.255-.496.506-.753.75-.315.3-.696.446-1.184.452a1.484 1.484 0 0 1-1.157-.607 10.189 10.189 0 0 1-1.03-1.67c-.319-.643-.649-1.28-1.07-1.865-.406-.564-.886-1.052-1.512-1.373-.16-.082-.163-.134-.04-.255.499-.489.991-.985 1.482-1.481.092-.094.145-.124.222.024.51.975 1.357 1.582 2.287 2.102.852.477 1.754.863 2.538 1.46.853.649.958 1.683.216 2.463h.001z"/>
      <path d="M11.678 20.121c-.183-.45-.523-.71-1.006-.71s-.828.255-1.009.705c-.607 1.491-1.235 2.975-1.81 4.477-.782 2.042.694 4.214 2.83 4.215.197-.012.393-.035.588-.068 1.857-.402 2.903-2.357 2.203-4.172-.575-1.49-1.195-2.965-1.797-4.449zm-.028 7.347a1.947 1.947 0 0 1-2.166-.139c-.637-.505-.956-1.431-.667-2.22.419-1.147.899-2.276 1.354-3.412.158-.394.319-.786.499-1.224.463 1.151.912 2.255 1.351 3.363.202.51.483.992.573 1.543.128.843-.252 1.682-.944 2.091v-.002zM3.156 20.817c-.273.022-.436.18-.474.453-.01.105-.014.211-.01.316v6.444c-.004.104-.001.208.009.312.038.273.2.432.473.455s.467-.099.545-.364c.03-.121.044-.245.039-.37v-6.506a1.354 1.354 0 0 0-.039-.37c-.076-.269-.273-.391-.544-.369zM3.207 18.141c-.372-.003-.535.235-.531.782 0 .104-.007.208 0 .312.024.289.187.457.473.491s.51-.134.568-.419a1.86 1.86 0 0 0 .022-.373c.003-.539-.166-.789-.531-.793zM24.139 10.003a1.272 1.272 0 0 0-.137.127l-3.981 3.981a.789.789 0 0 0-.216.301.526.526 0 0 0 .071.475.528.528 0 0 0 .424.225c.204-.003.347-.114.485-.252 1.317-1.321 2.636-2.641 3.958-3.96.053-.05.103-.103.148-.161a.535.535 0 0 0-.387-.852.515.515 0 0 0-.364.115zM18.791 15.562c-.334.004-.899.573-.9.91a.512.512 0 0 0 .273.457.468.468 0 0 0 .554-.03c.193-.157.368-.333.525-.526.132-.166.124-.37.014-.556a.5.5 0 0 0-.465-.255z"/>
    </symbol>
    <symbol id="icon-services-3" viewBox="0 0 32 32">
      <path d="M29.169 16.617c-.174-.038-.28-.064-.273-.302.084-2.388-.501-4.615-1.678-6.684a.49.49 0 0 1-.014-.532c1.933-3.76-.338-8.296-4.505-9.024-.102-.018-.231.052-.309-.074h-1.438c-.485.167-1.003.221-1.48.414a6.207 6.207 0 0 0-3.008 2.478c-.101.158-.198.226-.392.224a12.562 12.562 0 0 0-5.358 1.133c-.187.084-.286.044-.423-.091a3.595 3.595 0 0 0-5.601.633 3.623 3.623 0 0 0-.553 2.064c.023.755.29 1.483.762 2.073.135.167.144.292.029.483a12.559 12.559 0 0 0-1.792 5.843c-.011.187-.053.251-.251.244a9.12 9.12 0 0 0-.875 0 .993.993 0 0 0-.961.896c-.013.135-.018.27-.015.405v9.721c0 .213-.021.334-.279.373-.382.056-.564.383-.757.677v1.626c.277.594.752.796 1.389.758.602-.036 1.208 0 1.812-.011a.352.352 0 0 1 .365.206c.701 1.201 1.755 1.852 3.147 1.852s2.445-.657 3.147-1.856a.358.358 0 0 1 .363-.201c1.792.005 3.584.005 5.376 0a.353.353 0 0 1 .358.211c.707 1.195 1.755 1.85 3.152 1.847 1.379 0 2.423-.648 3.129-1.832.098-.167.189-.236.382-.226.364.017.729.01 1.094 0 .618-.011 1.041-.418 1.062-1.033.032-.949.029-1.897-.293-2.807-.084-.232-.022-.371.16-.531a10.785 10.785 0 0 0 1.644-1.792c.148-.206.215-.162.341.011.516.705 1.044 1.402 1.569 2.101.061.084.128.159.209.258 1.021-1.369 2.082-2.681 3.021-4.077 1.412-2.088.209-4.91-2.258-5.455zM21.046 1.072c2.783-.314 5.282 1.541 5.728 4.268.243 1.486-.049 2.868-.972 4.069-1.318 1.718-2.669 3.41-4.005 5.113a1.309 1.309 0 0 0-.089.16c-1.427-1.823-2.822-3.584-4.192-5.366-.639-.83-.93-1.8-.985-2.841-.143-2.684 1.88-5.106 4.514-5.403zM6.039 4.788a2.568 2.568 0 0 1 3.349-.068c.993.825 1.272 2.249.557 3.319-.668 1.003-1.43 1.943-2.153 2.909-.01.014-.036.018-.069.033-.707-.947-1.439-1.88-2.116-2.85-.734-1.052-.526-2.491.431-3.344zM3.131 28.073a1.903 1.903 0 0 0-.019.311c0 .528 0 .528-.54.528h-.467c-.28 0-.561-.011-.841 0-.181.009-.221-.059-.226-.231-.019-.802-.024-.802.763-.802.384 0 .768.007 1.151 0 .155-.004.204.042.178.194zm6.172.37a2.581 2.581 0 1 1-5.163-.125c.037-1.42 1.236-2.535 2.69-2.497 1.37.036 2.518 1.253 2.473 2.623zm.925-1.597a.358.358 0 0 1-.362-.209c-1.427-2.48-4.861-2.471-6.298.016-.028.065-.077.119-.139.153s-.133.049-.203.04a8.556 8.556 0 0 0-.906 0c-.213.014-.251-.064-.251-.26.008-1.886 0-3.772 0-5.657 0-1.375.006-2.75-.006-4.126 0-.233.055-.294.291-.292 1.188.013 2.375.013 3.563 0 .244 0 .288.07.286.297-.012 1.198-.005 2.396-.005 3.649.798-.398 1.561-.77 2.315-1.161a.523.523 0 0 1 .544 0c.752.393 1.516.761 2.312 1.156v-3.467c0-.469 0-.469.48-.469 1.125 0 2.25.006 3.375-.005.217 0 .279.054.278.276-.007 3.261-.007 6.521 0 9.782 0 .22-.06.277-.277.276a594.782 594.782 0 0 0-4.998.001zm.102-8.065c-.474-.236-.91-.448-1.337-.668a.377.377 0 0 0-.398-.006c-.427.231-.867.436-1.35.676v-2.141c0-.121.084-.123.167-.123h2.745c.174 0 .175.089.174.213-.003.662-.002 1.33-.002 2.049zm5.188 9.93c.02.178-.05.204-.205.203a962.003 962.003 0 0 0-4.805 0c-.167 0-.208-.052-.193-.215a2.821 2.821 0 0 0 0-.623c-.025-.19.06-.197.204-.196h2.434c.78 0 1.56.007 2.339-.005.196 0 .251.046.226.241a2.566 2.566 0 0 0-.001.594zm3.548 2.261c-1.429-.033-2.573-1.213-2.54-2.62.033-1.45 1.221-2.568 2.69-2.532 1.372.035 2.507 1.232 2.477 2.619a2.587 2.587 0 0 1-2.628 2.532zm2.872-4.762c-1.214-1.703-3.632-1.898-5.208-.522-.052.045-.084.12-.206.117v-5.949c0-.173.039-.233.222-.232 1.541.008 3.082 0 4.624.007.334 0 .477.143.577.536.123.485.123.485-.382.485h-1.843c-.701.006-1.121.43-1.13 1.133 0 .292-.005.585 0 .875.013.663.44 1.092 1.102 1.096.927.005 1.853.012 2.78-.006.273-.006.395.053.459.341.185.841.405 1.676.623 2.506.052.196.016.276-.192.245a.171.171 0 0 0-.032 0c-.598.077-.995-.076-1.394-.635v.003zm.159-4.512c.077 0 .194-.049.224.046.093.296.17.598.231.902.02.105-.107.066-.167.067-.436.004-.872 0-1.308 0-.405 0-.81-.007-1.216 0-.167 0-.231-.024-.235-.214-.013-.81-.021-.81.789-.81.561.001 1.121-.001 1.682.003v.005zm1.104 7.219c-.488 0-.488 0-.484-.494 0-.536 0-.536.532-.536.511 0 .511 0 .511.521 0 .504 0 .504-.559.504v.005zm2.348-6.576c.211.285.231.458.005.735-.44.541-.878 1.079-1.42 1.587-.167-.668-.334-1.297-.488-1.929-.236-.947-.468-1.897-.705-2.841-.216-.857-.78-1.302-1.663-1.303-1.491 0-2.98-.008-4.469.005-.241 0-.296-.068-.288-.297.017-.551.008-1.104.005-1.656 0-.739-.399-1.139-1.138-1.139-3.626 0-7.251.002-10.876.006-.287 0-.358-.062-.334-.358.148-1.822.668-3.553 1.551-5.052.105.041.148.143.209.225.564.752 1.129 1.496 1.685 2.249.099.134.15.159.261.008.942-1.271 1.915-2.519 2.832-3.807.716-1.003.843-2.129.418-3.295-.074-.205-.04-.272.158-.357a12.085 12.085 0 0 1 4.295-.974c.206-.009.261.008.194.243-.604 2.136-.251 4.094 1.126 5.849 1.587 2.023 3.175 4.041 4.786 6.092l4.731-6.016a11.425 11.425 0 0 1 1.213 3.273c.187.898.271 1.814.25 2.731 0 .187-.063.266-.25.311-2.629.63-3.694 3.529-2.086 5.707v.005zm4.958-.713c-.653.889-1.323 1.765-1.976 2.654-.118.16-.167.113-.262-.013-.652-.878-1.318-1.743-1.96-2.628a2.556 2.556 0 0 1 0-3.008 2.583 2.583 0 0 1 2.884-.948c1.049.334 1.761 1.297 1.784 2.307.01.667-.138 1.182-.469 1.631v.005z"/>
    </symbol>
    <symbol id="icon-services-4" viewBox="0 0 31 32">
      <path d="M28.848 11.633c-.821-.826-1.649-1.647-2.471-2.471-.288-.29-.215-.537.18-.652.882-.264 1.764-.537 2.649-.791.295-.086.524-.23.526-.566s-.221-.485-.52-.571c-.871-.254-1.736-.537-2.613-.768-.269-.072-.357-.204-.41-.454-.168-.769-.369-1.532-.545-2.3-.072-.322-.207-.564-.567-.567s-.501.236-.574.557c-.175.769-.386 1.53-.537 2.302-.06.306-.215.405-.48.493s-.43 0-.62-.19c-1.329-1.343-2.671-2.671-4.004-4.01-.86-.86-1.886-1.342-3.512-1.347-.86 0-1.905.492-2.788 1.38a2450.428 2450.428 0 0 1-7.386 7.39c-.957.957-1.934 1.894-2.856 2.884s-1.243 2.155-1.06 3.482c.149 1.086.691 1.95 1.469 2.686.107.1.275.167.207.388-.451 1.477-.736 3.008-1.531 4.372-.399.681-.782 1.369-1.212 2.031-.276.43-.261.601.088.949a8076.32 8076.32 0 0 0 5.853 5.854c.351.351.537.378.95.102 1.791-1.193 3.668-2.256 5.329-3.645.153-.127.239-.129.399 0 1.934 1.636 4.298 1.543 6.086-.241a7174.32 7174.32 0 0 0 9.947-9.945c1.877-1.875 1.877-4.468.004-6.35zm-4.794-4.817c.572-.099.86-.423.924-.983a.326.326 0 0 1 .12-.284c.055.177.1.356.136.537.054.364.264.56.611.651.43.107.843.243 1.265.365l.01.084c-.351.107-.698.233-1.056.304-.525.107-.831.38-.883.923a2.063 2.063 0 0 1-.073.301c-.041-.014-.079-.02-.081-.028-.029-.808-.51-1.165-1.252-1.289a1.939 1.939 0 0 1-.735-.295c.332-.115.671-.21 1.014-.286zM7.541 30.211c-.275.162-.562.483-.814.457s-.475-.391-.701-.617a4872.123 4872.123 0 0 1-4.548-4.545c-.123-.121-.255-.208-.101-.43 1.42-1.998 2.105-4.298 2.718-6.632.53-2.015 1.121-4.013 1.687-6.017.148-.524.562-.818 1.033-.752s.826.463.821 1.035l-.526 2.289c-.17.741-.343 1.483-.518 2.225-.075.322-.093.624.254.799.322.164.554-.014.776-.235 2.527-2.531 5.055-5.061 7.584-7.59.258-.259.528-.453.92-.348a.788.788 0 0 1 .452 1.241 2.442 2.442 0 0 1-.273.293l-5.372 5.372a3.228 3.228 0 0 0-.25.26c-.206.259-.204.525.035.752s.481.21.726.018a3.07 3.07 0 0 0 .261-.249l6.933-6.933c.1-.108.208-.21.322-.303a.78.78 0 0 1 1.058.072.794.794 0 0 1 .062 1.06 2.912 2.912 0 0 1-.274.292l-6.99 6.991a1.812 1.812 0 0 0-.285.333c-.143.242-.081.468.117.651a.478.478 0 0 0 .628.066c.12-.084.23-.181.33-.289l5.032-5.028c.109-.118.229-.226.357-.322a.798.798 0 0 1 1.058.12.831.831 0 0 1 .064 1.036c-.091.115-.19.222-.298.322a8876.205 8876.205 0 0 1-5.313 5.315c-.1.089-.192.187-.275.292a.518.518 0 0 0 .039.697.497.497 0 0 0 .691.081c.108-.08.208-.17.298-.27 1.27-1.268 2.539-2.537 3.808-3.807.119-.145.27-.26.441-.338a.752.752 0 0 1 .902.241.724.724 0 0 1 .052.897 2.079 2.079 0 0 1-.322.36c-1.637 1.64-3.314 3.243-4.906 4.925a35.603 35.603 0 0 1-7.69 6.212zm20.783-13.27c-.303.34-.636.652-.957.974l-9.294 9.291c-1.228 1.226-2.999 1.362-4.298.362-.248-.191-.309-.287-.042-.55a1029.37 1029.37 0 0 0 7.402-7.375c.967-.977.677-2.318-.66-3.116.559-.5.976-1.074.897-1.866s-.51-1.33-1.318-1.686c.277-.252.537-.459.76-.696.738-.78.731-1.934 0-2.673a1.912 1.912 0 0 0-2.679-.025c-.133.141-.257.29-.372.447-.759-1.476-2.214-1.707-3.319-.605a3730.32 3730.32 0 0 0-5.965 5.97 2.236 2.236 0 0 0-.246.364l-.132-.098c.197-.86.391-1.729.591-2.593.184-.796-.057-1.461-.651-1.988s-1.296-.627-2.03-.375c-.661.228-1.082.706-1.271 1.39-.46 1.658-.928 3.314-1.412 5.033a2.985 2.985 0 0 1-.993-1.972c-.107-1.036.23-1.921.967-2.657L13.421 2.382c1.313-1.308 3.223-1.347 4.535-.078s2.564 2.552 3.842 3.83c.042.05.081.103.118.157l-1.013.301c-.282.084-.481.241-.48.56s.206.474.486.557c.884.261 1.765.531 2.654.776a.487.487 0 0 1 .4.42c.171.783.374 1.559.55 2.341.072.322.215.562.571.562s.502-.245.571-.564c.069-.319.156-.637.227-.92.86.837 1.773 1.612 2.559 2.505 1.02 1.159.932 2.939-.116 4.113zM26.414 26.884a1.922 1.922 0 0 0-1.348 3.277 1.895 1.895 0 0 0 1.352.559 1.926 1.926 0 0 0 1.934-1.896c0-.514-.204-1.007-.568-1.37s-.856-.568-1.37-.569zm.01 2.744a.821.821 0 0 1-.814-.817.829.829 0 0 1 .798-.832.837.837 0 0 1 .837.837.827.827 0 0 1-.822.811zM4.139 3.279c.2.013.4.013.6 0 .2.011.4.011.6 0a.524.524 0 0 0 .504-.525.506.506 0 0 0-.113-.378c-.044-.052-.098-.094-.158-.125s-.127-.048-.195-.051a7.754 7.754 0 0 0-1.275 0c-.283.025-.445.239-.442.531a.52.52 0 0 0 .124.375.52.52 0 0 0 .356.174zM.912 3.286c.172.012.346 0 .52 0 .199.011.399.011.598 0 .322-.033.518-.229.518-.552.005-.068-.004-.136-.027-.2s-.058-.123-.103-.173a.504.504 0 0 0-.36-.164 7.728 7.728 0 0 0-1.198 0 .503.503 0 0 0-.476.358.5.5 0 0 0-.016.211c.016.329.222.496.544.52zM2.564 1.683a.48.48 0 0 0 .143.346.5.5 0 0 0 .345.144c.312.024.544-.125.571-.435a8.082 8.082 0 0 0 0-1.283c-.021-.312-.249-.473-.558-.453a.49.49 0 0 0-.363.15.492.492 0 0 0-.143.366c-.012.187 0 .375 0 .563s-.015.403.005.602zM2.569 5.003c.003.064.018.127.046.185s.066.11.113.154a.48.48 0 0 0 .353.126c.293.011.504-.135.543-.43a4.96 4.96 0 0 0 0-1.322c-.039-.291-.251-.438-.537-.43a.495.495 0 0 0-.513.466c-.012.2-.012.401 0 .602a5.388 5.388 0 0 0-.003.648zM30.587 23.327a.615.615 0 0 0-.588.597.61.61 0 0 0 .598.585.606.606 0 0 0 .587-.595.615.615 0 0 0-.596-.588z"/>
    </symbol>
    <symbol id="icon-services-5" viewBox="0 0 31 32">
      <path d="M26.778 21.624a3.608 3.608 0 0 0-3.577-3.043c-1.735 0-3.276 1.335-3.535 3.062-.108.696-.04 1.395-.052 2.091 0 .189-.041.241-.232.19a20.868 20.868 0 0 0-3.615-.598 27.315 27.315 0 0 0-5.885.127c-.821.099-1.633.257-2.43.473-.184.053-.241 0-.231-.191.016-.3 0-.604 0-.903h-.006c0-.279.011-.559 0-.838-.097-2.219-2.279-3.848-4.434-3.313A3.618 3.618 0 0 0 0 22.256a3.6 3.6 0 0 0 2.866 3.466c.197.043.235.113.231.29a74.933 74.933 0 0 0 0 1.774c.004 1.149.727 1.983 1.861 2.135.172.023.21.068.205.228-.01.419-.007.838 0 1.258 0 .398.195.588.597.592.451 0 .903-.008 1.353 0 .309.008.502-.123.632-.397.235-.493.491-.977.728-1.465a.3.3 0 0 1 .314-.204c3.085.005 6.169.005 9.254 0 .188 0 .259.077.334.224.242.502.496.998.741 1.498a.573.573 0 0 0 .564.345c.472-.005.948 0 1.418 0 .378-.005.571-.2.577-.58a38.48 38.48 0 0 0 0-1.225c0-.168.008-.249.225-.276 1.096-.136 1.832-.984 1.841-2.087.005-.604.009-1.207 0-1.811 0-.196.049-.259.253-.305a3.59 3.59 0 0 0 2.784-4.09zm-19.646 8.9c-.116.386-.362.502-.743.449-.14-.019-.197-.031-.204-.193-.034-.846-.04-.845.802-.845h.431c-.114.226-.228.398-.286.589zm13.509-.414c-.011.116 0 .236 0 .354 0 .545 0 .541-.559.506a.213.213 0 0 1-.222-.137c-.092-.204-.201-.401-.302-.604l-.141-.296c.38 0 .712.006 1.044 0 .135-.005.191.032.179.181v-.004zm2.678-5.339c-.447.024-.614.194-.615.642v2.322c0 .77-.408 1.166-1.18 1.166H5.333c-.81 0-1.207-.396-1.207-1.207v-2.258c0-.477-.159-.644-.622-.668a2.586 2.586 0 0 1-2.472-2.659c.031-1.379 1.199-2.5 2.602-2.5a2.58 2.58 0 0 1 2.554 2.544c.01.645 0 1.293.006 1.935a.25.25 0 0 1-.189.278c-.302.11-.594.245-.894.36-.165.064-.213.135-.102.3.143.212.212.54.404.636s.456-.151.69-.24c1.517-.571 3.092-.879 4.699-1.041a25.81 25.81 0 0 1 5.214 0c1.779.182 3.523.517 5.173 1.247.191.086.287.072.36-.122.035-.078.077-.153.124-.225.259-.466.259-.466-.242-.684-.02-.009-.041-.016-.06-.023-.237-.097-.582-.129-.684-.305-.123-.209-.052-.541-.044-.819.015-.569-.056-1.14.05-1.705.25-1.328 1.46-2.257 2.769-2.128a2.585 2.585 0 0 1 2.336 2.658 2.585 2.585 0 0 1-2.48 2.494v.002z"/>
      <path d="M30.96 2.219c0-1.354-.862-2.216-2.213-2.216h-8.19c-2.032 0-4.064-.005-6.095 0a2.065 2.065 0 0 0-2.069 1.867c-.066.711-.066.69.637.72.322.013.41-.069.397-.396-.026-.743.405-1.16 1.143-1.16 2.097 0 4.192.005 6.289-.008.267 0 .305.086.304.322a2931.51 2931.51 0 0 0-.005 9.837c0 .69 0 .667.701.696.304.012.338-.094.337-.357-.009-3.386 0-6.773-.011-10.159 0-.254.039-.341.321-.339 2.085.015 4.171.008 6.256.009.762 0 1.168.409 1.168 1.177v25.513c0 .77-.403 1.177-1.168 1.178h-3.805c-.703 0-.694 0-.707.718 0 .235.035.352.304.32.223-.027.452.007.677-.009a.33.33 0 0 1 .37.22c.235.505.494.999.739 1.499a.568.568 0 0 0 .564.35c.462-.006.925 0 1.387 0 .418-.004.604-.192.609-.614s0-.839 0-1.258c0-.115 0-.179.159-.204 1.242-.19 1.906-.971 1.906-2.224V14.962c0-4.246-.002-8.493-.004-12.741zm-3.094 27.917c-.009.107 0 .215 0 .322 0 .547 0 .541-.553.517a.24.24 0 0 1-.24-.162c-.131-.279-.274-.553-.431-.876.379 0 .711.009 1.043 0 .161-.014.194.055.181.198z"/>
      <path d="M3.79 10.84h3.611c.276 0 .631-.118.807.047.161.153.046.509.041.776 0 .172.052.226.217.21.265-.025.615.11.771-.053.131-.139.059-.488.044-.741-.013-.206.057-.247.251-.245.72.012 1.44.005 2.155.005h2.031c.598 0 .761-.187.71-.79-.166-1.937-.331-3.874-.494-5.812-.04-.469-.198-.622-.672-.623h-3.16c-.265 0-.615.115-.771-.048-.131-.138-.059-.487-.044-.741.012-.205-.055-.264-.251-.242-.253.028-.589-.105-.739.053-.126.133-.06.468-.042.71s-.063.279-.284.277c-1.247-.011-2.493-.006-3.74-.004-.404 0-.597.163-.628.531-.172 1.99-.341 3.981-.504 5.973-.035.523.15.718.69.719zm.399-1.325c.14-1.562.269-3.124.389-4.688.016-.203.129-.18.259-.18h2.095c1.902 0 3.804 0 5.705-.006.244 0 .316.056.335.31a225 225 0 0 0 .378 4.495c.026.284-.031.373-.339.369-1.417-.019-2.836-.009-4.255-.009S5.898 9.8 4.47 9.813c-.247.003-.303-.055-.284-.298h.003zM3.141 17.502c.155.155.49.022.743.05.202.023.251-.047.247-.246a80.862 80.862 0 0 1 0-2.257c0-.678.431-1.111 1.103-1.111h16.38c.655 0 1.085.431 1.091 1.092v1.773c0 .754 0 .747.771.751.205 0 .272-.046.267-.259-.015-.72-.005-1.441-.006-2.16 0-1.373-.862-2.228-2.234-2.229H5.186c-1.184 0-2.078.899-2.09 2.079a87.421 87.421 0 0 0 0 1.774c.001.251-.111.587.043.742z"/>
      <path d="M11.351 16.508c0-.507 0-.507-.493-.507-.539 0-.539 0-.539.525 0 .507 0 .507.492.507.54 0 .54 0 .54-.525zM15.965 16.001c-.486 0-.486 0-.486.481 0 .551 0 .551.546.551.486 0 .486 0 .486-.481.003-.551.003-.551-.546-.551zM7.739 19.071c0 .541 0 .541.522.541s.51 0 .51-.522c0-.509 0-.509-.523-.509-.509 0-.509 0-.509.491zM12.899 19.127c0 .486 0 .486.481.486.551 0 .551 0 .551-.546 0-.486 0-.486-.481-.486-.551 0-.551 0-.551.546zM18.059 19.06c0 .553 0 .553.543.553.489 0 .489 0 .489-.478 0-.553 0-.553-.543-.553-.489 0-.489 0-.489.479zM10.834 22.193c.517 0 .517 0 .517-.517s0-.517-.517-.517-.517 0-.517.517.003.517.517.517zM16.022 21.161c-.543 0-.543 0-.543.553 0 .478 0 .478.489.478.543 0 .543 0 .543-.553.003-.479.003-.479-.489-.479zM3.607 20.646a1.54 1.54 0 0 0-1.098.463 1.556 1.556 0 0 0-.446 1.104 1.553 1.553 0 0 0 1.552 1.528 1.54 1.54 0 0 0 1.098-.463 1.556 1.556 0 0 0 .446-1.104 1.553 1.553 0 0 0-1.552-1.528zm.022 2.063a.52.52 0 0 1-.535-.517.517.517 0 0 1 .512-.511.517.517 0 0 1 .517.504.52.52 0 0 1-.495.525zM23.228 20.646a1.55 1.55 0 0 0-1.441 2.119 1.55 1.55 0 0 0 1.426.975 1.55 1.55 0 0 0 1.552-1.551 1.55 1.55 0 0 0-1.538-1.542zm.006 2.063a.508.508 0 0 1-.377-.149.527.527 0 0 1-.154-.375.514.514 0 0 1 .517-.508.514.514 0 0 1 .517.508.515.515 0 0 1-.5.524h-.004z"/>
    </symbol>
    <symbol id="icon-services-6" viewBox="0 0 32 32">
      <path d="M.108 11.31c.513 2.429 2.574 4.181 5.057 4.231 1.737.036 3.476.036 5.217 0a5.238 5.238 0 0 0 5.156-5.126c.047-1.77.047-3.54 0-5.311-.06-2.348-1.681-4.325-3.95-4.93-.235-.063-.488-.051-.708-.173H4.592c-.245.147-.534.132-.797.22C1.809.893.574 2.238.102 4.281c-.024.103.016.234-.101.31v6.413c.116.072.085.208.106.307zm1.15-5.919c.004-2.353 1.779-4.128 4.132-4.132h4.776c2.333.005 4.092 1.735 4.128 4.068.013.817 0 1.634 0 2.45s.008 1.613 0 2.419c-.021 2.065-1.352 3.657-3.379 4.04a4.097 4.097 0 0 1-.75.054c-1.582.005-3.163.005-4.744 0-2.402 0-4.161-1.765-4.164-4.159-.001-1.578-.001-3.159.001-4.741zM10.35 16.44a142.883 142.883 0 0 0-5.155 0C2.7 16.483.626 18.232.108 20.675c-.022.103.009.234-.108.306v6.414c.115.063.073.186.093.279.556 2.59 2.671 4.307 5.32 4.31 1.614 0 3.227.009 4.84 0 2.88-.019 5.21-2.259 5.286-5.136a98.84 98.84 0 0 0 0-5.279 5.244 5.244 0 0 0-5.189-5.128zm3.945 10.123c-.013 2.424-1.765 4.162-4.193 4.164H5.389c-2.353-.004-4.127-1.782-4.131-4.133v-4.775c.004-2.353 1.771-4.118 4.133-4.126 1.592-.003 3.183-.003 4.775 0 2.353.004 4.102 1.738 4.129 4.096.009.806 0 1.613 0 2.419.002.785.005 1.571.001 2.356zM21.81 15.542c1.737.038 3.476.038 5.217 0a5.281 5.281 0 0 0 5.165-5.259c.012-1.666.012-3.332 0-4.998A5.318 5.318 0 0 0 28.216.173c-.224-.06-.466-.052-.672-.168h-6.288c-.024.084-.099.056-.155.066-2.58.46-4.401 2.549-4.454 5.162a113.45 113.45 0 0 0 .005 5.185 5.24 5.24 0 0 0 5.157 5.123zm-3.911-10.13c.012-2.402 1.769-4.147 4.174-4.15h4.713c2.374 0 4.146 1.771 4.151 4.146v4.775c-.005 2.336-1.774 4.106-4.118 4.118-1.613.005-3.226.005-4.839 0-2.293-.01-4.051-1.753-4.082-4.046-.012-.84 0-1.676 0-2.514.001-.782-.003-1.557.002-2.329zM32.183 21.515c-.056-2.672-2.291-4.967-4.967-5.057a85.361 85.361 0 0 0-5.657 0c-2.562.084-4.78 2.329-4.896 4.89-.043.941-.007 1.886-.007 2.829s-.035 1.887.007 2.828c.118 2.672 2.393 4.911 5.064 4.967 1.793.038 3.586.038 5.378 0 2.716-.056 5.029-2.369 5.085-5.085.032-1.789.029-3.58-.008-5.372zm-1.247 5.078c-.005 2.353-1.781 4.13-4.132 4.133h-4.776c-2.345-.005-4.107-1.755-4.129-4.1-.008-.806 0-1.613 0-2.419s-.004-1.592 0-2.387c.016-2.388 1.765-4.125 4.16-4.128h4.744c2.36.004 4.129 1.77 4.134 4.126.002 1.592.002 3.184-.001 4.776z"/>
    </symbol>
    <symbol id="icon-twitter" viewBox="0 0 32 32">
      <path d="M29.549 7.541c-1.018.45-2.097.746-3.203.877a5.593 5.593 0 0 0 2.453-3.085 11.118 11.118 0 0 1-3.541 1.353 5.576 5.576 0 0 0-9.501 5.085A15.826 15.826 0 0 1 4.264 5.944a5.557 5.557 0 0 0-.755 2.804c0 1.933.984 3.641 2.48 4.641a5.562 5.562 0 0 1-2.525-.697v.069a5.58 5.58 0 0 0 4.473 5.468 5.603 5.603 0 0 1-2.52.096 5.58 5.58 0 0 0 5.209 3.873 11.181 11.181 0 0 1-8.254 2.309 15.783 15.783 0 0 0 8.547 2.507c10.257 0 15.867-8.497 15.867-15.867 0-.24-.007-.483-.017-.72a11.334 11.334 0 0 0 2.783-2.887l-.001-.001z"/>
    </symbol>
    <symbol id="icon-youtube" viewBox="0 0 32 32">
      <path d="M28.724 8.664c.609 2.376.609 7.336.609 7.336s0 4.96-.609 7.336c-.339 1.313-1.329 2.347-2.584 2.696-2.279.635-10.14.635-10.14.635s-7.857 0-10.14-.635c-1.26-.355-2.249-1.387-2.584-2.696C2.667 20.96 2.667 16 2.667 16s0-4.96.609-7.336c.339-1.313 1.329-2.347 2.584-2.696C8.143 5.333 16 5.333 16 5.333s7.861 0 10.14.635c1.26.355 2.249 1.387 2.584 2.696zM13.333 20.667l8-4.667-8-4.667v9.333z"/>
    </symbol>
    <symbol id="icon-close" viewBox="0 0 32 32">
      <path d="M16 0C7.163 0 0 7.163 0 16s7.163 16 16 16 16-7.163 16-16S24.837 0 16 0zm0 29C8.82 29 3 23.18 3 16S8.82 3 16 3s13 5.82 13 13-5.82 13-13 13z"/>
      <path d="m21 8-5 5-5-5-3 3 5 5-5 5 3 3 5-5 5 5 3-3-5-5 5-5z"/>
    </symbol>
  </defs>
</svg>
